<svg width="126" height="126" viewBox="0 0 126 126" fill="none" xmlns="http://www.w3.org/2000/svg">
<path d="M116.446 84.1321L124.395 88.4562C125.96 89.3081 126.467 91.1492 125.529 92.5689C125.249 92.9909 124.86 93.3439 124.395 93.5968L66.4016 125.145C64.3082 126.285 61.6917 126.285 59.5986 125.145L1.60555 93.5968C0.0399202 92.7451 -0.46775 90.904 0.471608 89.4844C0.750833 89.0624 1.1402 88.7093 1.60555 88.4562L9.55376 84.1321L63.0003 113.208L116.446 84.1321ZM116.446 55.9558L124.395 60.2799C125.96 61.1319 126.467 62.9729 125.529 64.3924C125.249 64.8146 124.86 65.1677 124.395 65.4206L63.0003 98.8197L1.60555 65.4206C0.0399202 64.5687 -0.46775 62.7276 0.471608 61.3081C0.750833 60.8859 1.1402 60.5329 1.60555 60.2799L9.55376 55.9558L63.0003 85.0313L116.446 55.9558Z" fill="#16803C"/>
<path d="M66.4016 0.854287L124.395 32.4031C125.96 33.2548 126.467 35.0961 125.529 36.5156C125.249 36.9376 124.86 37.2907 124.395 37.5438L63.0003 70.943L1.60555 37.5438C0.0399202 36.692 -0.46775 34.8508 0.471608 33.4313C0.750833 33.0093 1.1402 32.6562 1.60555 32.4031L59.5986 0.854287C61.6917 -0.284762 64.3082 -0.284762 66.4016 0.854287ZM63.0003 12.9863L22.5833 34.9734L63.0003 56.9608L103.417 34.9734L63.0003 12.9863Z" fill="#49DE80"/>
</svg>
