<svg width="16" height="16" viewBox="0 0 16 16" fill="none" xmlns="http://www.w3.org/2000/svg">
<path d="M14.7868 10.6834L15.7961 11.2325C15.995 11.3407 16.0594 11.5745 15.9401 11.7547C15.9046 11.8083 15.8552 11.8532 15.7961 11.8853L8.43195 15.8914C8.16612 16.0362 7.83387 16.0362 7.56807 15.8914L0.203879 11.8853C0.00506924 11.7771 -0.0593969 11.5433 0.0598868 11.3631C0.0953439 11.3095 0.144787 11.2646 0.203879 11.2325L1.21318 10.6834L8.00004 14.3755L14.7868 10.6834ZM14.7868 7.10547L15.7961 7.65457C15.995 7.76274 16.0594 7.99653 15.9401 8.17679C15.9046 8.23039 15.8552 8.27523 15.7961 8.30735L8.00004 12.5485L0.203879 8.30735C0.00506924 8.19917 -0.0593969 7.96538 0.0598868 7.78513C0.0953439 7.73152 0.144787 7.68668 0.203879 7.65457L1.21318 7.10547L8.00004 10.7976L14.7868 7.10547Z" fill="#16803C"/>
<path d="M8.43195 0.108481L15.7961 4.11468C15.995 4.22284 16.0594 4.45665 15.9401 4.6369C15.9046 4.69049 15.8552 4.73532 15.7961 4.76746L8.00004 9.00864L0.203879 4.76746C0.00506924 4.65931 -0.0593969 4.42549 0.0598868 4.24524C0.0953439 4.19166 0.144787 4.14682 0.203879 4.11468L7.56807 0.108481C7.83387 -0.0361603 8.16612 -0.0361603 8.43195 0.108481ZM8.00004 1.64905L2.86773 4.44107L8.00004 7.23312L13.1323 4.44107L8.00004 1.64905Z" fill="#49DE80"/>
</svg>
